# xmcd
#
# Track frame offsets:
#	150
#	1884
#	13804
#	30475
#	45793
#	67846
#	82091
#	99105
#	115956
#	130090
#	148331
#	160962
#
# Disc length: 2320 seconds
# Revision: 0
# Processed by: cddbd v1.5.2PL0 Copyright (c) Steve Scherf et al.
# Submitted via: dBpowerAMP V12.0
#
DISCID=8d090e0c
DTITLE=Jeb Loy Nichols and The Westwood All-Stars - June Is Short, July Is Long
DYEAR=2019
DGENRE=Country
TTITLE0=Intro
TTITLE1=You Got It Wrong
TTITLE2=Think I'm Gonna Fall In Love Today
TTITLE3=Matter Of Fact
TTITLE4=Nothing You Can Do About It
TTITLE5=Last Train Home
TTITLE6=Black Rooster
TTITLE7=Remember The Season
TTITLE8=How Can A Man (Live Without His Mother)
TTITLE9=Home In My Arms
TTITLE10=In The Night Time
TTITLE11=Picture Of You
EXTD=
EXTT0=
EXTT1=
EXTT2=
EXTT3=
EXTT4=
EXTT5=
EXTT6=
EXTT7=
EXTT8=
EXTT9=
EXTT10=
EXTT11=
PLAYORDER=
